<svg width="32" height="32" viewBox="0 0 32 32" fill="none" xmlns="http://www.w3.org/2000/svg">
<path d="M16.4375 15.9696C20.8474 15.9696 24.4223 12.3947 24.4223 7.98482C24.4223 3.57493 20.8474 0 16.4375 0C12.0276 0 8.45264 3.57493 8.45264 7.98482C8.45264 12.3947 12.0276 15.9696 16.4375 15.9696Z" fill="url(#paint0_linear)"/>
<path d="M15.7571 31.805C10.5424 28.4785 6.20538 23.945 3.11302 18.588C3.05387 18.4817 3.017 18.3645 3.00464 18.2436C2.99228 18.1226 3.00469 18.0004 3.04113 17.8843C3.07757 17.7683 3.13727 17.661 3.21657 17.5688C3.29588 17.4766 3.39314 17.4015 3.50241 17.3482L9.54922 14.3807C9.75307 14.2813 9.98706 14.263 10.2039 14.3295C10.4207 14.3959 10.6043 14.5422 10.7174 14.7388C13.7745 19.8627 18.2951 23.9545 23.6972 26.4878C21.7049 28.4952 19.4986 30.2782 17.1178 31.805C16.9137 31.9324 16.678 32 16.4375 32C16.1969 32 15.9612 31.9324 15.7571 31.805Z" fill="url(#paint1_linear)"/>
<path d="M17.1178 31.805C22.3333 28.4793 26.6704 23.9456 29.7619 18.588C29.8212 18.482 29.8583 18.3651 29.871 18.2443C29.8837 18.1235 29.8717 18.0014 29.8357 17.8854C29.7996 17.7695 29.7404 17.662 29.6616 17.5697C29.5827 17.4773 29.4859 17.4019 29.377 17.3482L23.3257 14.3807C23.1219 14.2813 22.8879 14.263 22.6711 14.3295C22.4542 14.3959 22.2707 14.5422 22.1575 14.7388C19.101 19.8632 14.5804 23.9552 9.17773 26.4878C11.1689 28.4965 13.3753 30.2797 15.7572 31.805C15.9612 31.9324 16.1969 32 16.4375 32C16.678 32 16.9138 31.9324 17.1178 31.805Z" fill="#2684FF"/>
<defs>
<linearGradient id="paint0_linear" x1="16.4375" y1="2.65415" x2="16.4375" y2="19.049" gradientUnits="userSpaceOnUse">
<stop stop-color="#2684FF"/>
<stop offset="0.82" stop-color="#0052CC"/>
</linearGradient>
<linearGradient id="paint1_linear" x1="11.523" y1="18.588" x2="17.0148" y2="30.0818" gradientUnits="userSpaceOnUse">
<stop stop-color="#2684FF"/>
<stop offset="0.62" stop-color="#0052CC"/>
</linearGradient>
</defs>
</svg>
